<svg id="visual" viewBox="0 0 900 600" width="900" height="600" xmlns="http://www.w3.org/2000/svg" xmlns:xlink="http://www.w3.org/1999/xlink" version="1.1"><rect x="0" y="0" width="900" height="600" fill="#002233"></rect><path d="M0 308L21.5 278.2C43 248.3 86 188.7 128.8 189.3C171.7 190 214.3 251 257.2 250.2C300 249.3 343 186.7 385.8 168.8C428.7 151 471.3 178 514.2 188.3C557 198.7 600 192.3 642.8 216.3C685.7 240.3 728.3 294.7 771.2 321.2C814 347.7 857 346.3 878.5 345.7L900 345L900 0L878.5 0C857 0 814 0 771.2 0C728.3 0 685.7 0 642.8 0C600 0 557 0 514.2 0C471.3 0 428.7 0 385.8 0C343 0 300 0 257.2 0C214.3 0 171.7 0 128.8 0C86 0 43 0 21.5 0L0 0Z" fill="#0066FF" stroke-linecap="round" stroke-linejoin="miter"></path></svg>