<svg id="visual" viewBox="0 0 900 600" width="900" height="600" xmlns="http://www.w3.org/2000/svg" xmlns:xlink="http://www.w3.org/1999/xlink" version="1.1"><rect x="0" y="0" width="900" height="600" fill="#002233"></rect><path d="M0 251L21.5 284.5C43 318 86 385 128.8 384.3C171.7 383.7 214.3 315.3 257.2 316.3C300 317.3 343 387.7 385.8 407.8C428.7 428 471.3 398 514.2 386.3C557 374.7 600 381.3 642.8 354.2C685.7 327 728.3 266 771.2 236.2C814 206.3 857 207.7 878.5 208.3L900 209L900 601L878.5 601C857 601 814 601 771.2 601C728.3 601 685.7 601 642.8 601C600 601 557 601 514.2 601C471.3 601 428.7 601 385.8 601C343 601 300 601 257.2 601C214.3 601 171.7 601 128.8 601C86 601 43 601 21.5 601L0 601Z" fill="#0066FF" stroke-linecap="round" stroke-linejoin="miter"></path></svg>