<svg id="visual" viewBox="0 0 900 600" width="900" height="600" xmlns="http://www.w3.org/2000/svg" xmlns:xlink="http://www.w3.org/1999/xlink" version="1.1"><g stroke-width="1" stroke-linejoin="bevel"><path d="M412 287L429 417L473 362Z" fill="#bec4c8" stroke="#bec4c8"></path><path d="M412 287L279 326L429 417Z" fill="#297ea6" stroke="#297ea6"></path><path d="M482 467L537 338L473 362Z" fill="#b0bcc4" stroke="#b0bcc4"></path><path d="M473 362L505 232L412 287Z" fill="#cccccc" stroke="#cccccc"></path><path d="M434 493L482 467L429 417Z" fill="#769cb5" stroke="#769cb5"></path><path d="M429 417L482 467L473 362Z" fill="#cccccc" stroke="#cccccc"></path><path d="M279 326L288 431L429 417Z" fill="#94acbd" stroke="#94acbd"></path><path d="M294 499L434 493L429 417Z" fill="#297ea6" stroke="#297ea6"></path><path d="M537 338L505 232L473 362Z" fill="#297ea6" stroke="#297ea6"></path><path d="M412 287L265 234L279 326Z" fill="#85a4b9" stroke="#85a4b9"></path><path d="M537 338L565 279L505 232Z" fill="#a2b4c1" stroke="#a2b4c1"></path><path d="M625 390L565 279L537 338Z" fill="#94acbd" stroke="#94acbd"></path><path d="M505 232L392 178L412 287Z" fill="#6695b1" stroke="#6695b1"></path><path d="M288 431L294 499L429 417Z" fill="#bec4c8" stroke="#bec4c8"></path><path d="M392 178L265 234L412 287Z" fill="#cccccc" stroke="#cccccc"></path><path d="M279 326L227 417L288 431Z" fill="#769cb5" stroke="#769cb5"></path><path d="M288 431L235 497L294 499Z" fill="#558dae" stroke="#558dae"></path><path d="M191 278L227 417L279 326Z" fill="#297ea6" stroke="#297ea6"></path><path d="M590 479L537 338L482 467Z" fill="#a2b4c1" stroke="#a2b4c1"></path><path d="M590 479L625 390L537 338Z" fill="#4285aa" stroke="#4285aa"></path><path d="M490 600L590 479L482 467Z" fill="#558dae" stroke="#558dae"></path><path d="M227 417L235 497L288 431Z" fill="#6695b1" stroke="#6695b1"></path><path d="M265 234L191 278L279 326Z" fill="#4285aa" stroke="#4285aa"></path><path d="M227 417L129 503L235 497Z" fill="#a2b4c1" stroke="#a2b4c1"></path><path d="M294 499L422 600L434 493Z" fill="#4285aa" stroke="#4285aa"></path><path d="M434 493L490 600L482 467Z" fill="#558dae" stroke="#558dae"></path><path d="M294 600L422 600L294 499Z" fill="#558dae" stroke="#558dae"></path><path d="M422 600L490 600L434 493Z" fill="#4285aa" stroke="#4285aa"></path><path d="M265 234L180 210L191 278Z" fill="#bec4c8" stroke="#bec4c8"></path><path d="M162 106L180 210L265 234Z" fill="#94acbd" stroke="#94acbd"></path><path d="M497 90L366 87L392 178Z" fill="#85a4b9" stroke="#85a4b9"></path><path d="M392 178L328 83L265 234Z" fill="#cccccc" stroke="#cccccc"></path><path d="M497 90L392 178L505 232Z" fill="#558dae" stroke="#558dae"></path><path d="M235 497L294 600L294 499Z" fill="#297ea6" stroke="#297ea6"></path><path d="M627 164L505 232L565 279Z" fill="#85a4b9" stroke="#85a4b9"></path><path d="M591 120L497 90L505 232Z" fill="#6695b1" stroke="#6695b1"></path><path d="M360 0L328 83L366 87Z" fill="#bec4c8" stroke="#bec4c8"></path><path d="M366 87L328 83L392 178Z" fill="#769cb5" stroke="#769cb5"></path><path d="M729 270L627 164L565 279Z" fill="#4285aa" stroke="#4285aa"></path><path d="M627 164L591 120L505 232Z" fill="#cccccc" stroke="#cccccc"></path><path d="M114 290L111 396L191 278Z" fill="#558dae" stroke="#558dae"></path><path d="M191 278L111 396L227 417Z" fill="#558dae" stroke="#558dae"></path><path d="M235 497L181 600L294 600Z" fill="#94acbd" stroke="#94acbd"></path><path d="M180 210L114 290L191 278Z" fill="#cccccc" stroke="#cccccc"></path><path d="M590 479L699 428L625 390Z" fill="#94acbd" stroke="#94acbd"></path><path d="M625 390L729 270L565 279Z" fill="#94acbd" stroke="#94acbd"></path><path d="M729 505L699 428L590 479Z" fill="#85a4b9" stroke="#85a4b9"></path><path d="M111 396L129 503L227 417Z" fill="#558dae" stroke="#558dae"></path><path d="M490 600L610 600L590 479Z" fill="#bec4c8" stroke="#bec4c8"></path><path d="M699 428L729 270L625 390Z" fill="#4285aa" stroke="#4285aa"></path><path d="M627 164L730 137L591 120Z" fill="#6695b1" stroke="#6695b1"></path><path d="M129 503L181 600L235 497Z" fill="#769cb5" stroke="#769cb5"></path><path d="M328 83L162 106L265 234Z" fill="#cccccc" stroke="#cccccc"></path><path d="M180 210L75 172L114 290Z" fill="#94acbd" stroke="#94acbd"></path><path d="M162 106L128 136L180 210Z" fill="#b0bcc4" stroke="#b0bcc4"></path><path d="M729 270L707 163L627 164Z" fill="#4285aa" stroke="#4285aa"></path><path d="M610 600L729 505L590 479Z" fill="#6695b1" stroke="#6695b1"></path><path d="M699 428L785 290L729 270Z" fill="#558dae" stroke="#558dae"></path><path d="M328 83L201 0L162 106Z" fill="#85a4b9" stroke="#85a4b9"></path><path d="M497 90L360 0L366 87Z" fill="#a2b4c1" stroke="#a2b4c1"></path><path d="M515 0L360 0L497 90Z" fill="#cccccc" stroke="#cccccc"></path><path d="M515 0L497 90L582 0Z" fill="#94acbd" stroke="#94acbd"></path><path d="M582 0L497 90L591 120Z" fill="#6695b1" stroke="#6695b1"></path><path d="M360 0L290 0L328 83Z" fill="#4285aa" stroke="#4285aa"></path><path d="M0 191L75 172L0 103Z" fill="#558dae" stroke="#558dae"></path><path d="M128 136L75 172L180 210Z" fill="#6695b1" stroke="#6695b1"></path><path d="M114 290L0 305L111 396Z" fill="#bec4c8" stroke="#bec4c8"></path><path d="M111 0L128 136L162 106Z" fill="#6695b1" stroke="#6695b1"></path><path d="M129 503L116 600L181 600Z" fill="#769cb5" stroke="#769cb5"></path><path d="M0 600L116 600L129 503Z" fill="#297ea6" stroke="#297ea6"></path><path d="M0 473L129 503L111 396Z" fill="#94acbd" stroke="#94acbd"></path><path d="M834 417L785 290L699 428Z" fill="#a2b4c1" stroke="#a2b4c1"></path><path d="M783 236L730 137L707 163Z" fill="#769cb5" stroke="#769cb5"></path><path d="M610 600L703 600L729 505Z" fill="#bec4c8" stroke="#bec4c8"></path><path d="M811 600L779 464L729 505Z" fill="#a2b4c1" stroke="#a2b4c1"></path><path d="M729 505L779 464L699 428Z" fill="#297ea6" stroke="#297ea6"></path><path d="M783 236L707 163L729 270Z" fill="#4285aa" stroke="#4285aa"></path><path d="M707 163L730 137L627 164Z" fill="#cccccc" stroke="#cccccc"></path><path d="M785 290L783 236L729 270Z" fill="#94acbd" stroke="#94acbd"></path><path d="M693 0L582 0L591 120Z" fill="#6695b1" stroke="#6695b1"></path><path d="M290 0L201 0L328 83Z" fill="#cccccc" stroke="#cccccc"></path><path d="M0 191L0 305L114 290Z" fill="#cccccc" stroke="#cccccc"></path><path d="M0 305L0 437L111 396Z" fill="#cccccc" stroke="#cccccc"></path><path d="M0 437L0 473L111 396Z" fill="#b0bcc4" stroke="#b0bcc4"></path><path d="M779 464L834 417L699 428Z" fill="#b0bcc4" stroke="#b0bcc4"></path><path d="M785 290L900 307L783 236Z" fill="#6695b1" stroke="#6695b1"></path><path d="M900 495L834 417L779 464Z" fill="#cccccc" stroke="#cccccc"></path><path d="M75 172L0 191L114 290Z" fill="#94acbd" stroke="#94acbd"></path><path d="M0 103L75 172L128 136Z" fill="#b0bcc4" stroke="#b0bcc4"></path><path d="M814 118L693 0L730 137Z" fill="#b0bcc4" stroke="#b0bcc4"></path><path d="M730 137L693 0L591 120Z" fill="#bec4c8" stroke="#bec4c8"></path><path d="M201 0L111 0L162 106Z" fill="#297ea6" stroke="#297ea6"></path><path d="M900 193L814 118L783 236Z" fill="#6695b1" stroke="#6695b1"></path><path d="M783 236L814 118L730 137Z" fill="#4285aa" stroke="#4285aa"></path><path d="M703 600L811 600L729 505Z" fill="#a2b4c1" stroke="#a2b4c1"></path><path d="M0 473L0 600L129 503Z" fill="#a2b4c1" stroke="#a2b4c1"></path><path d="M111 0L0 103L128 136Z" fill="#94acbd" stroke="#94acbd"></path><path d="M900 495L900 371L834 417Z" fill="#94acbd" stroke="#94acbd"></path><path d="M834 417L900 371L785 290Z" fill="#769cb5" stroke="#769cb5"></path><path d="M900 371L900 307L785 290Z" fill="#b0bcc4" stroke="#b0bcc4"></path><path d="M811 600L900 495L779 464Z" fill="#297ea6" stroke="#297ea6"></path><path d="M900 307L900 193L783 236Z" fill="#769cb5" stroke="#769cb5"></path><path d="M814 118L823 0L693 0Z" fill="#a2b4c1" stroke="#a2b4c1"></path><path d="M111 0L0 0L0 103Z" fill="#6695b1" stroke="#6695b1"></path><path d="M900 119L823 0L814 118Z" fill="#b0bcc4" stroke="#b0bcc4"></path><path d="M900 193L900 119L814 118Z" fill="#769cb5" stroke="#769cb5"></path><path d="M811 600L900 600L900 495Z" fill="#a2b4c1" stroke="#a2b4c1"></path><path d="M900 119L900 0L823 0Z" fill="#558dae" stroke="#558dae"></path></g></svg>